<svg aria-hidden="true" style="position: absolute; width: 0; height: 0; overflow: hidden;" version="1.1" xmlns="http://www.w3.org/2000/svg" xmlns:xlink="http://www.w3.org/1999/xlink">
<defs>
<symbol id="logo" viewBox="0 0 26 32">
<path fill="#fff" style="fill: var(--color1, #fff)" d="M15.097 3.931l6.753 11.696h-13.505l6.753-11.696z"></path>
<path fill="#fff" style="fill: var(--color1, #fff)" d="M7.799 16.282l6.753 11.696h-13.505l6.753-11.696z"></path>
<path fill="#fff" style="fill: var(--color1, #fff)" d="M21.842 16.259l-6.82 11.657-6.685-11.734 13.505 0.078z"></path>
<path fill="#52ffe0" style="fill: var(--color2, #52ffe0)" d="M7.799 15.595l-6.754-11.695 13.505-0.001-6.752 11.697z"></path>
</symbol>
<symbol id="menu" viewBox="0 0 32 32">
<path d="M28.444 25.778h-24.889c-0.236 0-0.462-0.094-0.629-0.26s-0.26-0.393-0.26-0.629c0-0.236 0.094-0.462 0.26-0.628s0.393-0.26 0.629-0.26h24.889c0.236 0 0.462 0.094 0.628 0.26s0.26 0.393 0.26 0.628c0 0.236-0.094 0.462-0.26 0.629s-0.393 0.26-0.628 0.26z"></path>
<path d="M28.444 16.889h-24.889c-0.236 0-0.462-0.094-0.629-0.26s-0.26-0.393-0.26-0.628 0.094-0.462 0.26-0.629c0.167-0.167 0.393-0.26 0.629-0.26h24.889c0.236 0 0.462 0.094 0.628 0.26s0.26 0.393 0.26 0.629c0 0.236-0.094 0.462-0.26 0.628s-0.393 0.26-0.628 0.26z"></path>
<path d="M28.444 8h-24.889c-0.236 0-0.462-0.094-0.629-0.26s-0.26-0.393-0.26-0.629c0-0.236 0.094-0.462 0.26-0.629s0.393-0.26 0.629-0.26h24.889c0.236 0 0.462 0.094 0.628 0.26s0.26 0.393 0.26 0.629c0 0.236-0.094 0.462-0.26 0.629s-0.393 0.26-0.628 0.26z"></path>
</symbol>
<symbol id="seven" viewBox="0 0 32 32">
<path fill="#52ffe0" style="fill: var(--color1, #52ffe0)" d="M32 16c0 8.837-7.163 16-16 16s-16-7.163-16-16c0-8.837 7.163-16 16-16s16 7.163 16 16z"></path>
<path fill="#2c2d31" style="fill: var(--color2, #2c2d31)" d="M13.762 20.706c0.060-0.010 0.171-0.12 0.331-0.331 0.161-0.221 0.356-0.592 0.587-1.114 0.161-0.351 0.311-0.698 0.452-1.039 0.141-0.351 0.281-0.708 0.422-1.069s0.296-0.738 0.467-1.129c0.251-0.582 0.497-1.074 0.738-1.476 0.251-0.402 0.477-0.733 0.678-0.994 0.211-0.271 0.387-0.487 0.527-0.648v-0.030h-4.036c-0.653 0-1.119 0.070-1.4 0.211-0.271 0.131-0.407 0.261-0.407 0.392v-1.807h8.056c-0.090 0.1-0.216 0.261-0.376 0.482-0.151 0.211-0.296 0.432-0.437 0.663-0.090 0.141-0.221 0.387-0.392 0.738-0.161 0.341-0.346 0.743-0.557 1.205-0.201 0.452-0.412 0.929-0.632 1.431-0.211 0.502-0.412 0.989-0.602 1.461s-0.351 0.893-0.482 1.265c-0.13 0.371-0.216 0.653-0.256 0.843-0.070 0.351-0.1 0.597-0.090 0.738 0.020 0.141 0.050 0.211 0.090 0.211h-2.68z"></path>
</symbol>
<symbol id="ten" viewBox="0 0 32 32">
<path fill="#52ffe0" style="fill: var(--color1, #52ffe0)" d="M32 16c0 8.837-7.163 16-16 16s-16-7.163-16-16c0-8.837 7.163-16 16-16s16 7.163 16 16z"></path>
<path fill="#2c2d31" style="fill: var(--color2, #2c2d31)" d="M10.737 20.706c0.070 0 0.136-0.070 0.196-0.211 0.070-0.141 0.105-0.371 0.105-0.693v-6.626l-1.656 0.301v-1.355c0.412 0 0.828-0.030 1.25-0.090 0.432-0.070 0.828-0.151 1.19-0.241 0.371-0.1 0.673-0.191 0.904-0.271v8.282c0 0.321 0.035 0.552 0.105 0.693s0.141 0.211 0.211 0.211h-2.304zM18.534 20.856c-1.335 0-2.334-0.397-2.997-1.19-0.663-0.803-0.994-1.978-0.994-3.524 0-1.506 0.336-2.65 1.009-3.433 0.673-0.793 1.667-1.19 2.982-1.19h0.166c1.295 0 2.269 0.392 2.921 1.175 0.663 0.783 0.994 1.933 0.994 3.448 0 1.546-0.331 2.721-0.994 3.524-0.653 0.793-1.626 1.19-2.921 1.19h-0.166zM18.534 19.637h0.166c0.472 0 0.873-0.095 1.205-0.286 0.331-0.201 0.582-0.552 0.753-1.054 0.181-0.512 0.271-1.23 0.271-2.153 0-0.904-0.090-1.601-0.271-2.093-0.171-0.502-0.422-0.848-0.753-1.039s-0.733-0.286-1.205-0.286h-0.166c-0.482 0-0.893 0.095-1.235 0.286s-0.607 0.532-0.798 1.024c-0.181 0.492-0.271 1.195-0.271 2.108 0 0.934 0.090 1.656 0.271 2.168 0.191 0.502 0.457 0.848 0.798 1.039 0.351 0.191 0.763 0.286 1.235 0.286z"></path>
</symbol>
<symbol id="three" viewBox="0 0 32 32">
<path fill="#52ffe0" style="fill: var(--color1, #52ffe0)" d="M32 16c0 8.837-7.163 16-16 16s-16-7.163-16-16c0-8.837 7.163-16 16-16s16 7.163 16 16z"></path>
<path fill="#2c2d31" style="fill: var(--color2, #2c2d31)" d="M16.089 20.856c-1.024 0-1.862-0.065-2.515-0.196-0.653-0.141-1.089-0.276-1.31-0.407l0.316-1.461v-0.301c0.141 0.161 0.356 0.331 0.648 0.512s0.653 0.336 1.084 0.467c0.442 0.12 0.944 0.181 1.506 0.181 0.542 0 0.974-0.060 1.295-0.181 0.331-0.12 0.567-0.296 0.708-0.527 0.151-0.231 0.226-0.507 0.226-0.828 0-0.462-0.186-0.808-0.557-1.039-0.371-0.241-0.984-0.361-1.837-0.361h-1.28v-1.129h1.28c0.653 0 1.114-0.146 1.385-0.437 0.271-0.301 0.407-0.713 0.407-1.235 0-0.261-0.055-0.477-0.166-0.648-0.11-0.181-0.276-0.316-0.497-0.407s-0.497-0.136-0.828-0.136c-0.472 0-0.924 0.075-1.355 0.226-0.422 0.151-0.793 0.336-1.114 0.557-0.321 0.211-0.577 0.417-0.768 0.617v-0.301l-0.301-1.4c0.231-0.201 0.653-0.402 1.265-0.602s1.36-0.301 2.244-0.301c0.843 0 1.496 0.095 1.958 0.286s0.783 0.457 0.964 0.798c0.191 0.341 0.286 0.738 0.286 1.19 0 0.522-0.156 0.969-0.467 1.34-0.301 0.371-0.688 0.653-1.16 0.843v0.030c0.723 0.161 1.275 0.417 1.656 0.768s0.572 0.833 0.572 1.446c0 0.502-0.12 0.954-0.361 1.355s-0.632 0.718-1.175 0.949c-0.532 0.221-1.235 0.331-2.108 0.331z"></path>
</symbol>
<symbol id="read-more" viewBox="0 0 34 32">
<path fill="#fff" style="fill: var(--color1, #fff)" d="M4 2h9v2h-8v24h24v-8h2v9l-1 1h-26l-1-1v-26l1-1z"></path>
<path fill="#fff" style="fill: var(--color1, #fff)" d="M31 3v13h-2v-10.586l-13.514 13.516-1.414-1.416 13.514-13.514h-10.586v-2h13l1 1z"></path>
</symbol>
<symbol id="app" viewBox="0 0 32 32">
<path fill="#fff" style="fill: var(--color1, #fff)" d="M23.356 16.741c-0.012-2.131 0.953-3.738 2.903-4.922-1.091-1.563-2.741-2.422-4.916-2.588-2.059-0.162-4.313 1.2-5.137 1.2-0.872 0-2.866-1.144-4.434-1.144-3.237 0.050-6.678 2.581-6.678 7.731 0 1.522 0.278 3.094 0.834 4.712 0.744 2.131 3.425 7.353 6.222 7.269 1.463-0.034 2.497-1.038 4.4-1.038 1.847 0 2.803 1.038 4.434 1.038 2.822-0.041 5.247-4.788 5.953-6.925-3.784-1.784-3.581-5.225-3.581-5.334zM20.072 7.209c1.584-1.881 1.441-3.594 1.394-4.209-1.4 0.081-3.019 0.953-3.941 2.025-1.016 1.15-1.612 2.572-1.484 4.175 1.513 0.116 2.894-0.662 4.031-1.991z"></path>
</symbol>
<symbol id="google" viewBox="0 0 32 32">
<path d="M8.441 23.178c0 0.731 0.597 1.328 1.331 1.328h1.522v3.762c0 0.953 0.766 1.731 1.706 1.731 0.944 0 1.706-0.775 1.706-1.731v-3.766h2.656v3.763c0 0.953 0.766 1.731 1.706 1.731 0.944 0 1.706-0.775 1.706-1.731v-3.763h1.522c0.734 0 1.331-0.597 1.331-1.328v-12.35h-15.188v12.353zM19.6 4.425l1.403-2.031c0.081-0.119 0.063-0.278-0.047-0.356-0.109-0.075-0.266-0.038-0.347 0.081l-1.456 2.112c-0.959-0.378-2.028-0.587-3.15-0.587s-2.191 0.209-3.15 0.587l-1.456-2.109c-0.081-0.119-0.238-0.159-0.347-0.081-0.109 0.075-0.128 0.231-0.047 0.356l1.403 2.031c-2.231 1.038-3.794 3.003-3.994 5.3h15.188c-0.206-2.3-1.772-4.266-4-5.303zM12.797 7.628c-0.166 0-0.329-0.049-0.467-0.142s-0.246-0.224-0.31-0.377c-0.064-0.154-0.080-0.323-0.048-0.486s0.113-0.313 0.23-0.43c0.118-0.118 0.267-0.198 0.43-0.23s0.332-0.016 0.486 0.048c0.154 0.064 0.285 0.171 0.377 0.31s0.142 0.301 0.142 0.467c-0.001 0.223-0.089 0.436-0.247 0.594s-0.371 0.246-0.594 0.247zM19.309 7.628c-0.166 0-0.329-0.049-0.467-0.142s-0.246-0.224-0.31-0.377c-0.064-0.154-0.080-0.323-0.048-0.486s0.113-0.313 0.23-0.43c0.118-0.118 0.267-0.198 0.43-0.23s0.332-0.016 0.486 0.048c0.154 0.064 0.285 0.171 0.377 0.31s0.142 0.301 0.142 0.467c-0.001 0.223-0.089 0.436-0.247 0.594s-0.371 0.246-0.594 0.247zM26.291 10.775c-0.944 0-1.706 0.775-1.706 1.731v6.762c0 0.953 0.766 1.731 1.706 1.731 0.944 0 1.706-0.775 1.706-1.731v-6.766c0.003-0.956-0.759-1.728-1.706-1.728zM5.709 10.775c-0.944 0-1.706 0.775-1.706 1.731v6.762c0 0.953 0.766 1.731 1.706 1.731 0.944 0 1.706-0.775 1.706-1.731v-6.766c0-0.956-0.766-1.728-1.706-1.728z"></path>
</symbol>
<symbol id="dribbble" viewBox="0 0 32 32">
<path d="M16 2c-7.729 0-14 6.271-14 14s6.271 14 14 14c7.729 0 14-6.264 14-14s-6.271-14-14-14zM24.889 8.453c1.62 1.904 2.584 4.279 2.75 6.774-2.523-0.131-5.542-0.131-7.963 0.095-0.306-0.773-0.62-1.531-0.963-2.261 2.791-1.21 4.943-2.8 6.175-4.608zM16 4.333c2.719-0.005 5.354 0.945 7.445 2.684-1.269 1.604-3.259 3-5.739 4.054-1.356-2.508-2.917-4.666-4.581-6.366 0.939-0.242 1.905-0.367 2.875-0.372zM10.721 5.609c1.684 1.677 3.267 3.813 4.652 6.313-2.632 0.804-5.651 1.266-8.873 1.266-0.612 0-1.21-0.022-1.801-0.059 0.411-1.61 1.16-3.113 2.199-4.41s2.342-2.357 3.822-3.11zM4.355 15.446c0.664 0.029 1.334 0.044 2.013 0.037 3.675-0.044 7.095-0.62 10.034-1.563 0.277 0.576 0.54 1.167 0.788 1.772-0.355 0.078-0.704 0.182-1.043 0.313-4.017 1.687-7.182 4.407-8.896 7.696-1.879-2.125-2.917-4.863-2.917-7.7 0-0.187 0.008-0.372 0.022-0.554zM16 27.667c-2.592 0.003-5.11-0.862-7.153-2.458 1.553-3.077 4.324-5.625 7.817-7.204 0.328-0.153 0.766-0.277 1.269-0.386 0.417 1.152 0.789 2.347 1.116 3.587 0.489 1.871 0.848 3.774 1.077 5.695-1.317 0.505-2.715 0.764-4.125 0.766zM22.307 25.807c-0.228-1.941-0.591-3.863-1.087-5.753-0.25-0.948-0.532-1.867-0.838-2.764 2.289-0.188 5.031-0.161 7.211 0-0.192 1.723-0.766 3.382-1.681 4.856s-2.146 2.724-3.605 3.661z"></path>
</symbol>
<symbol id="facebook" viewBox="0 0 32 32">
<path d="M30 16.085c0-7.731-6.269-14-14-14s-14 6.269-14 14c0 6.987 5.119 12.779 11.813 13.831v-9.783h-3.556v-4.048h3.556v-3.084c0-3.508 2.091-5.447 5.288-5.447 1.532 0 3.134 0.274 3.134 0.274v3.446h-1.766c-1.738 0-2.282 1.079-2.282 2.188v2.625h3.882l-0.62 4.048h-3.262v9.784c6.694-1.051 11.813-6.842 11.813-13.832z"></path>
</symbol>
<symbol id="github" viewBox="0 0 32 32">
<path d="M16 2c-7.731 0-14 6.431-14 14.356 0 6.344 4.013 11.719 9.575 13.619 0.078 0.017 0.158 0.025 0.238 0.025 0.519 0 0.719-0.381 0.719-0.713 0-0.344-0.012-1.244-0.019-2.444-0.463 0.109-0.937 0.165-1.412 0.169-2.694 0-3.306-2.094-3.306-2.094-0.638-1.656-1.556-2.1-1.556-2.1-1.219-0.856-0.006-0.881 0.088-0.881h0.006c1.406 0.125 2.144 1.487 2.144 1.487 0.7 1.225 1.637 1.569 2.475 1.569 0.554-0.011 1.099-0.139 1.6-0.375 0.125-0.925 0.488-1.556 0.887-1.919-3.106-0.363-6.375-1.594-6.375-7.094 0-1.569 0.544-2.85 1.437-3.85-0.144-0.363-0.625-1.825 0.137-3.8 0.102-0.024 0.207-0.035 0.313-0.031 0.506 0 1.65 0.194 3.537 1.506 2.293-0.642 4.719-0.642 7.013 0 1.887-1.313 3.031-1.506 3.537-1.506 0.105-0.004 0.21 0.007 0.313 0.031 0.763 1.975 0.281 3.438 0.137 3.8 0.894 1.006 1.437 2.287 1.437 3.85 0 5.513-3.275 6.725-6.394 7.081 0.5 0.444 0.95 1.319 0.95 2.656 0 1.919-0.019 3.469-0.019 3.937 0 0.338 0.194 0.719 0.712 0.719 0.084 0 0.168-0.008 0.25-0.025 5.569-1.9 9.575-7.281 9.575-13.619 0-7.925-6.269-14.356-14-14.356z"></path>
</symbol>
<symbol id="send" viewBox="0 0 32 32">
<path d="M29.652 1.241c-0.185-0.154-0.411-0.252-0.65-0.283s-0.482 0.007-0.7 0.109l-26.195 12.295v2.379l11.002 4.401 7.057 10.858h2.38l7.519-28.463c0.061-0.233 0.054-0.479-0.019-0.708s-0.21-0.434-0.395-0.588zM21.078 28.731l-6.066-9.333 9.335-10.224-1.477-1.348-9.408 10.304-9.071-3.629 23.34-10.956-6.653 25.186z"></path>
</symbol>
<symbol id="twitter" viewBox="0 0 32 32">
<path d="M31 6.843c-1.125 0.489-2.316 0.811-3.534 0.956 1.28-0.75 2.243-1.941 2.708-3.35-1.211 0.708-2.533 1.205-3.91 1.469-0.58-0.608-1.277-1.091-2.050-1.421s-1.604-0.499-2.444-0.498c-3.401 0-6.154 2.712-6.154 6.056-0.002 0.465 0.051 0.929 0.159 1.381-2.439-0.114-4.827-0.736-7.012-1.827s-4.118-2.624-5.676-4.505c-0.547 0.921-0.836 1.973-0.837 3.044 0 2.1 1.096 3.956 2.75 5.044-0.98-0.023-1.94-0.283-2.799-0.756v0.075c0 2.938 2.125 5.381 4.938 5.938-0.529 0.141-1.074 0.212-1.621 0.212-0.388 0.001-0.776-0.037-1.157-0.112 0.782 2.406 3.058 4.156 5.753 4.206-2.19 1.688-4.88 2.6-7.645 2.594-0.491-0.001-0.981-0.030-1.469-0.088 2.813 1.796 6.083 2.747 9.421 2.738 11.335 0 17.528-9.231 17.528-17.238 0-0.262-0.007-0.525-0.019-0.781 1.202-0.855 2.242-1.917 3.071-3.138z"></path>
</symbol>
</defs>
</svg>
