<svg aria-hidden="true" style="position: absolute; width: 0; height: 0; overflow: hidden;" version="1.1" xmlns="http://www.w3.org/2000/svg" xmlns:xlink="http://www.w3.org/1999/xlink">
<defs>
<symbol id="logo" viewBox="0 0 26 32">
<path fill="#fff" style="fill: var(--color1, #fff)" d="M15.097 3.931l6.753 11.696h-13.505l6.753-11.696z"></path>
<path fill="#fff" style="fill: var(--color1, #fff)" d="M7.799 16.282l6.753 11.696h-13.505l6.753-11.696z"></path>
<path fill="#fff" style="fill: var(--color1, #fff)" d="M21.842 16.259l-6.82 11.657-6.685-11.734 13.505 0.078z"></path>
<path fill="#52ffe0" style="fill: var(--color2, #52ffe0)" d="M7.799 15.595l-6.754-11.695 13.505-0.001-6.752 11.697z"></path>
</symbol>
<symbol id="menu" viewBox="0 0 32 32">
<path d="M28.444 25.778h-24.889c-0.236 0-0.462-0.094-0.629-0.26s-0.26-0.393-0.26-0.629c0-0.236 0.094-0.462 0.26-0.628s0.393-0.26 0.629-0.26h24.889c0.236 0 0.462 0.094 0.628 0.26s0.26 0.393 0.26 0.628c0 0.236-0.094 0.462-0.26 0.629s-0.393 0.26-0.628 0.26z"></path>
<path d="M28.444 16.889h-24.889c-0.236 0-0.462-0.094-0.629-0.26s-0.26-0.393-0.26-0.628 0.094-0.462 0.26-0.629c0.167-0.167 0.393-0.26 0.629-0.26h24.889c0.236 0 0.462 0.094 0.628 0.26s0.26 0.393 0.26 0.629c0 0.236-0.094 0.462-0.26 0.628s-0.393 0.26-0.628 0.26z"></path>
<path d="M28.444 8h-24.889c-0.236 0-0.462-0.094-0.629-0.26s-0.26-0.393-0.26-0.629c0-0.236 0.094-0.462 0.26-0.629s0.393-0.26 0.629-0.26h24.889c0.236 0 0.462 0.094 0.628 0.26s0.26 0.393 0.26 0.629c0 0.236-0.094 0.462-0.26 0.629s-0.393 0.26-0.628 0.26z"></path>
</symbol>
</defs>
</svg>
