<svg xmlns="http://www.w3.org/2000/svg" aria-hidden="true" style="position:absolute;width:0;height:0;overflow:hidden"><defs><symbol id="logo" viewBox="0 0 26 32"><path fill="#fff" d="m15.097 3.931 6.753 11.696H8.345l6.753-11.696zM7.799 16.282l6.753 11.696H1.047L7.8 16.282zM21.842 16.259l-6.82 11.657-6.685-11.734 13.505.078z" style="fill:var(--color1, #fff)"/><path fill="#52ffe0" d="M7.799 15.595 1.045 3.9l13.505-.001-6.752 11.697z" style="fill:var(--color2, #52ffe0)"/></symbol><symbol id="menu" viewBox="0 0 32 32"><path d="M28.444 25.778H3.555a.887.887 0 0 1-.629-1.517.89.89 0 0 1 .629-.26h24.889a.889.889 0 0 1 0 1.777zM28.444 16.889H3.555a.886.886 0 0 1-.629-1.517.888.888 0 0 1 .629-.26h24.889a.889.889 0 0 1 0 1.777zM28.444 8H3.555a.887.887 0 0 1-.629-1.518.887.887 0 0 1 .629-.26h24.889a.889.889 0 0 1 0 1.778z"/></symbol><symbol id="seven" viewBox="0 0 32 32"><path fill="#52ffe0" d="M32 16c0 8.837-7.163 16-16 16S0 24.837 0 16 7.163 0 16 0s16 7.163 16 16z" style="fill:var(--color1, #52ffe0)"/><path fill="#2c2d31" d="M13.762 20.706c.06-.01.171-.12.331-.331.161-.221.356-.592.587-1.114.161-.351.311-.698.452-1.039.141-.351.281-.708.422-1.069s.296-.738.467-1.129c.251-.582.497-1.074.738-1.476.251-.402.477-.733.678-.994.211-.271.387-.487.527-.648v-.03h-4.036c-.653 0-1.119.07-1.4.211-.271.131-.407.261-.407.392v-1.807h8.056c-.09.1-.216.261-.376.482-.151.211-.296.432-.437.663-.09.141-.221.387-.392.738-.161.341-.346.743-.557 1.205-.201.452-.412.929-.632 1.431-.211.502-.412.989-.602 1.461s-.351.893-.482 1.265c-.13.371-.216.653-.256.843-.07.351-.1.597-.09.738.02.141.05.211.09.211h-2.68z" style="fill:var(--color2, #2c2d31)"/></symbol><symbol id="ten" viewBox="0 0 32 32"><path fill="#52ffe0" d="M32 16c0 8.837-7.163 16-16 16S0 24.837 0 16 7.163 0 16 0s16 7.163 16 16z" style="fill:var(--color1, #52ffe0)"/><path fill="#2c2d31" d="M10.737 20.706c.07 0 .136-.07.196-.211.07-.141.105-.371.105-.693v-6.626l-1.656.301v-1.355c.412 0 .828-.03 1.25-.09.432-.07.828-.151 1.19-.241.371-.1.673-.191.904-.271v8.282c0 .321.035.552.105.693s.141.211.211.211h-2.304zm7.797.15c-1.335 0-2.334-.397-2.997-1.19-.663-.803-.994-1.978-.994-3.524 0-1.506.336-2.65 1.009-3.433.673-.793 1.667-1.19 2.982-1.19h.166c1.295 0 2.269.392 2.921 1.175.663.783.994 1.933.994 3.448 0 1.546-.331 2.721-.994 3.524-.653.793-1.626 1.19-2.921 1.19h-.166zm0-1.219h.166c.472 0 .873-.095 1.205-.286.331-.201.582-.552.753-1.054.181-.512.271-1.23.271-2.153 0-.904-.09-1.601-.271-2.093-.171-.502-.422-.848-.753-1.039s-.733-.286-1.205-.286h-.166c-.482 0-.893.095-1.235.286s-.607.532-.798 1.024c-.181.492-.271 1.195-.271 2.108 0 .934.09 1.656.271 2.168.191.502.457.848.798 1.039.351.191.763.286 1.235.286z" style="fill:var(--color2, #2c2d31)"/></symbol><symbol id="three" viewBox="0 0 32 32"><path fill="#52ffe0" d="M32 16c0 8.837-7.163 16-16 16S0 24.837 0 16 7.163 0 16 0s16 7.163 16 16z" style="fill:var(--color1, #52ffe0)"/><path fill="#2c2d31" d="M16.089 20.856c-1.024 0-1.862-.065-2.515-.196-.653-.141-1.089-.276-1.31-.407l.316-1.461v-.301c.141.161.356.331.648.512s.653.336 1.084.467c.442.12.944.181 1.506.181.542 0 .974-.06 1.295-.181.331-.12.567-.296.708-.527a1.48 1.48 0 0 0 .226-.828c0-.462-.186-.808-.557-1.039-.371-.241-.984-.361-1.837-.361h-1.28v-1.129h1.28c.653 0 1.114-.146 1.385-.437.271-.301.407-.713.407-1.235 0-.261-.055-.477-.166-.648-.11-.181-.276-.316-.497-.407s-.497-.136-.828-.136a4.07 4.07 0 0 0-1.355.226 4.812 4.812 0 0 0-1.114.557 4.425 4.425 0 0 0-.768.617v-.301l-.301-1.4c.231-.201.653-.402 1.265-.602s1.36-.301 2.244-.301c.843 0 1.496.095 1.958.286s.783.457.964.798c.191.341.286.738.286 1.19 0 .522-.156.969-.467 1.34a2.821 2.821 0 0 1-1.16.843v.03c.723.161 1.275.417 1.656.768s.572.833.572 1.446c0 .502-.12.954-.361 1.355s-.632.718-1.175.949c-.532.221-1.235.331-2.108.331z" style="fill:var(--color2, #2c2d31)"/></symbol><symbol id="read-more" viewBox="0 0 34 32"><path fill="#fff" d="M4 2h9v2H5v24h24v-8h2v9l-1 1H4l-1-1V3l1-1z" style="fill:var(--color1, #fff)"/><path fill="#fff" d="M31 3v13h-2V5.414L15.486 18.93l-1.414-1.416L27.586 4H17V2h13l1 1z" style="fill:var(--color1, #fff)"/></symbol><symbol id="app" viewBox="0 0 32 32"><path fill="#fff" d="M23.356 16.741c-.012-2.131.953-3.738 2.903-4.922-1.091-1.563-2.741-2.422-4.916-2.588-2.059-.162-4.313 1.2-5.137 1.2-.872 0-2.866-1.144-4.434-1.144-3.237.05-6.678 2.581-6.678 7.731 0 1.522.278 3.094.834 4.712.744 2.131 3.425 7.353 6.222 7.269 1.463-.034 2.497-1.038 4.4-1.038 1.847 0 2.803 1.038 4.434 1.038 2.822-.041 5.247-4.788 5.953-6.925-3.784-1.784-3.581-5.225-3.581-5.334zm-3.284-9.532C21.656 5.328 21.513 3.615 21.466 3c-1.4.081-3.019.953-3.941 2.025-1.016 1.15-1.612 2.572-1.484 4.175 1.513.116 2.894-.662 4.031-1.991z" style="fill:var(--color1, #fff)"/></symbol><symbol id="google" viewBox="0 0 32 32"><path d="M8.441 23.178c0 .731.597 1.328 1.331 1.328h1.522v3.762c0 .953.766 1.731 1.706 1.731.944 0 1.706-.775 1.706-1.731v-3.766h2.656v3.763c0 .953.766 1.731 1.706 1.731.944 0 1.706-.775 1.706-1.731v-3.763h1.522c.734 0 1.331-.597 1.331-1.328v-12.35H8.439v12.353zM19.6 4.425l1.403-2.031c.081-.119.063-.278-.047-.356-.109-.075-.266-.038-.347.081l-1.456 2.112c-.959-.378-2.028-.587-3.15-.587s-2.191.209-3.15.587l-1.456-2.109c-.081-.119-.238-.159-.347-.081-.109.075-.128.231-.047.356l1.403 2.031c-2.231 1.038-3.794 3.003-3.994 5.3H23.6c-.206-2.3-1.772-4.266-4-5.303zm-6.803 3.203a.836.836 0 0 1-.777-.519.843.843 0 0 1 .612-1.146.843.843 0 0 1 1.005.825.844.844 0 0 1-.841.841zm6.512 0a.836.836 0 0 1-.777-.519.843.843 0 0 1 .612-1.146.843.843 0 0 1 1.005.825.844.844 0 0 1-.841.841zm6.982 3.147c-.944 0-1.706.775-1.706 1.731v6.762c0 .953.766 1.731 1.706 1.731.944 0 1.706-.775 1.706-1.731v-6.766a1.711 1.711 0 0 0-1.706-1.728zm-20.582 0c-.944 0-1.706.775-1.706 1.731v6.762c0 .953.766 1.731 1.706 1.731.944 0 1.706-.775 1.706-1.731v-6.766c0-.956-.766-1.728-1.706-1.728z"/></symbol><symbol id="dribbble" viewBox="0 0 32 32"><path d="M16 2C8.271 2 2 8.271 2 16s6.271 14 14 14 14-6.264 14-14S23.729 2 16 2zm8.889 6.453a11.646 11.646 0 0 1 2.75 6.774c-2.523-.131-5.542-.131-7.963.095a39.566 39.566 0 0 0-.963-2.261c2.791-1.21 4.943-2.8 6.175-4.608zM16 4.333a11.61 11.61 0 0 1 7.445 2.684c-1.269 1.604-3.259 3-5.739 4.054-1.356-2.508-2.917-4.666-4.581-6.366A11.765 11.765 0 0 1 16 4.333zm-5.279 1.276c1.684 1.677 3.267 3.813 4.652 6.313-2.632.804-5.651 1.266-8.873 1.266-.612 0-1.21-.022-1.801-.059a11.668 11.668 0 0 1 6.021-7.52zm-6.366 9.837a37.26 37.26 0 0 0 2.013.037c3.675-.044 7.095-.62 10.034-1.563.277.576.54 1.167.788 1.772a7.15 7.15 0 0 0-1.043.313c-4.017 1.687-7.182 4.407-8.896 7.696a11.624 11.624 0 0 1-2.917-7.7c0-.187.008-.372.022-.554zM16 27.667a11.596 11.596 0 0 1-7.153-2.458c1.553-3.077 4.324-5.625 7.817-7.204.328-.153.766-.277 1.269-.386a41.986 41.986 0 0 1 1.116 3.587 42.343 42.343 0 0 1 1.077 5.695 11.566 11.566 0 0 1-4.125.766zm6.307-1.86a41.935 41.935 0 0 0-1.087-5.753 40.67 40.67 0 0 0-.838-2.764c2.289-.188 5.031-.161 7.211 0a11.654 11.654 0 0 1-5.286 8.517z"/></symbol><symbol id="facebook" viewBox="0 0 32 32"><path d="M30 16.085c0-7.731-6.269-14-14-14s-14 6.269-14 14c0 6.987 5.119 12.779 11.813 13.831v-9.783h-3.556v-4.048h3.556v-3.084c0-3.508 2.091-5.447 5.288-5.447 1.532 0 3.134.274 3.134.274v3.446h-1.766c-1.738 0-2.282 1.079-2.282 2.188v2.625h3.882l-.62 4.048h-3.262v9.784C24.881 28.868 30 23.077 30 16.087z"/></symbol><symbol id="github" viewBox="0 0 32 32"><path d="M16 2C8.269 2 2 8.431 2 16.356c0 6.344 4.013 11.719 9.575 13.619.078.017.158.025.238.025.519 0 .719-.381.719-.713 0-.344-.012-1.244-.019-2.444a6.398 6.398 0 0 1-1.412.169c-2.694 0-3.306-2.094-3.306-2.094-.638-1.656-1.556-2.1-1.556-2.1-1.219-.856-.006-.881.088-.881h.006c1.406.125 2.144 1.487 2.144 1.487.7 1.225 1.637 1.569 2.475 1.569a3.938 3.938 0 0 0 1.6-.375c.125-.925.488-1.556.887-1.919-3.106-.363-6.375-1.594-6.375-7.094 0-1.569.544-2.85 1.437-3.85-.144-.363-.625-1.825.137-3.8.102-.024.207-.035.313-.031.506 0 1.65.194 3.537 1.506a13.009 13.009 0 0 1 7.013 0c1.887-1.313 3.031-1.506 3.537-1.506.105-.004.21.007.313.031.763 1.975.281 3.438.137 3.8.894 1.006 1.437 2.287 1.437 3.85 0 5.513-3.275 6.725-6.394 7.081.5.444.95 1.319.95 2.656 0 1.919-.019 3.469-.019 3.937 0 .338.194.719.712.719.084 0 .168-.008.25-.025 5.569-1.9 9.575-7.281 9.575-13.619 0-7.925-6.269-14.356-14-14.356z"/></symbol><symbol id="send" viewBox="0 0 32 32"><path d="M29.652 1.241a1.272 1.272 0 0 0-1.35-.174L2.107 13.362v2.379l11.002 4.401L20.166 31h2.38l7.519-28.463a1.272 1.272 0 0 0-.414-1.296zm-8.574 27.49-6.066-9.333 9.335-10.224-1.477-1.348-9.408 10.304-9.071-3.629 23.34-10.956-6.653 25.186z"/></symbol><symbol id="twitter" viewBox="0 0 32 32"><path d="M31 6.843a12.604 12.604 0 0 1-3.534.956 6.098 6.098 0 0 0 2.708-3.35 12.357 12.357 0 0 1-3.91 1.469 6.192 6.192 0 0 0-4.494-1.919c-3.401 0-6.154 2.712-6.154 6.056-.002.465.051.929.159 1.381A17.544 17.544 0 0 1 3.087 5.104a5.973 5.973 0 0 0-.837 3.044c0 2.1 1.096 3.956 2.75 5.044a6.1 6.1 0 0 1-2.799-.756v.075c0 2.938 2.125 5.381 4.938 5.938a6.294 6.294 0 0 1-1.621.212 5.916 5.916 0 0 1-1.157-.112c.782 2.406 3.058 4.156 5.753 4.206A12.48 12.48 0 0 1 1 25.261a17.42 17.42 0 0 0 9.421 2.738c11.335 0 17.528-9.231 17.528-17.238 0-.262-.007-.525-.019-.781a12.395 12.395 0 0 0 3.071-3.138z"/></symbol><symbol id="read-more-dt" viewBox="0 0 32 32"><path fill="#fff" d="M28 5a.997.997 0 0 0-1-1H15a.997.997 0 0 0-1 1 .997.997 0 0 0 1 1h9.586L4.292 26.292a.991.991 0 0 0-.293.708 1.002 1.002 0 0 0 1.709.708L26 7.414V17a.997.997 0 0 0 1 1 .997.997 0 0 0 1-1V5z" style="fill:var(--color1, #fff)"/></symbol><symbol id="instagram" viewBox="0 0 32 32"><path d="M16 11.834c-2.294 0-4.166 1.872-4.166 4.166s1.872 4.166 4.166 4.166c2.294 0 4.166-1.872 4.166-4.166S18.294 11.834 16 11.834zM28.494 16c0-1.725.016-3.434-.081-5.156-.097-2-.553-3.775-2.016-5.237-1.466-1.466-3.237-1.919-5.237-2.016-1.725-.097-3.434-.081-5.156-.081-1.725 0-3.434-.016-5.156.081-2 .097-3.775.553-5.237 2.016-1.466 1.466-1.919 3.237-2.016 5.237-.097 1.725-.081 3.434-.081 5.156s-.016 3.434.081 5.156c.097 2 .553 3.775 2.016 5.237 1.466 1.466 3.237 1.919 5.237 2.016 1.725.097 3.434.081 5.156.081 1.725 0 3.434.016 5.156-.081 2-.097 3.775-.553 5.237-2.016 1.466-1.466 1.919-3.237 2.016-5.237.1-1.722.081-3.431.081-5.156zM16 22.409c-3.547 0-6.409-2.862-6.409-6.409S12.454 9.591 16 9.591c3.547 0 6.409 2.863 6.409 6.409S19.546 22.409 16 22.409zm6.672-11.584c-.828 0-1.497-.669-1.497-1.497s.669-1.497 1.497-1.497a1.495 1.495 0 0 1 .573 2.88 1.482 1.482 0 0 1-.573.113z"/></symbol><symbol id="youtube" viewBox="0 0 32 32"><path d="M29.416 9.253a3.507 3.507 0 0 0-2.475-2.478C24.757 6.187 16 6.187 16 6.187s-8.756 0-10.941.584a3.503 3.503 0 0 0-2.475 2.478C2 11.437 2 15.999 2 15.999s0 4.563.584 6.747a3.51 3.51 0 0 0 2.475 2.478c2.184.587 10.941.587 10.941.587s8.756 0 10.941-.587a3.505 3.505 0 0 0 2.475-2.478C30 20.562 30 15.999 30 15.999s0-4.563-.584-6.747zM13.219 20.187v-8.375l7.25 4.156-7.25 4.219z"/></symbol><symbol id="linkedin" viewBox="0 0 32 32"><path d="M12.572 11.959h4.952v2.467c.713-1.419 2.543-2.693 5.291-2.693 5.268 0 6.519 2.824 6.519 8.005v9.596h-5.333v-8.416c0-2.951-.713-4.615-2.529-4.615-2.519 0-3.565 1.793-3.565 4.613v8.417h-5.333V11.958zM3.427 29.107H8.76V11.732H3.427v17.375zm6.097-23.04A3.363 3.363 0 0 1 8.52 8.47c-.645.641-1.518 1-2.427.997a3.455 3.455 0 0 1-2.424-.996 3.402 3.402 0 0 1-1.003-2.404c0-.903.36-1.767 1.004-2.404a3.447 3.447 0 0 1 4.849 0 3.382 3.382 0 0 1 1.004 2.404z"/></symbol><symbol id="tiktok" viewBox="0 0 32 32"><path d="M26.12 8.92a6.443 6.443 0 0 1-5.027-5.667v-.587h-4.6v18.227a3.854 3.854 0 0 1-6.933 2.32 3.86 3.86 0 0 1-.383-4.051 3.861 3.861 0 0 1 3.463-2.136c.398-.002.793.056 1.173.173v-4.667a9.138 9.138 0 0 0-1.333-.067 8.445 8.445 0 0 0-7.596 5.264 8.436 8.436 0 0 0 1.783 9.069 8.456 8.456 0 0 0 9.22 1.9 8.448 8.448 0 0 0 5.26-7.806v-9.333a10.885 10.885 0 0 0 6.36 2.027V9.053a6.482 6.482 0 0 1-1.333-.133h-.053z"/></symbol></defs></svg>