<svg aria-hidden="true" style="position: absolute; width: 0; height: 0; overflow: hidden;" version="1.1" xmlns="http://www.w3.org/2000/svg" xmlns:xlink="http://www.w3.org/1999/xlink">
<defs>
<symbol id="logo" viewBox="0 0 26 32">
<path fill="#fff" style="fill: var(--color1, #fff)" d="M15.097 3.931l6.753 11.696h-13.505l6.753-11.696z"></path>
<path fill="#fff" style="fill: var(--color1, #fff)" d="M7.799 16.282l6.753 11.696h-13.505l6.753-11.696z"></path>
<path fill="#fff" style="fill: var(--color1, #fff)" d="M21.842 16.259l-6.82 11.657-6.685-11.734 13.505 0.078z"></path>
<path fill="#52ffe0" style="fill: var(--color2, #52ffe0)" d="M7.799 15.595l-6.754-11.695 13.505-0.001-6.752 11.697z"></path>
</symbol>
<symbol id="menu" viewBox="0 0 32 32">
<path d="M28.444 25.778h-24.889c-0.236 0-0.462-0.094-0.629-0.26s-0.26-0.393-0.26-0.629c0-0.236 0.094-0.462 0.26-0.628s0.393-0.26 0.629-0.26h24.889c0.236 0 0.462 0.094 0.628 0.26s0.26 0.393 0.26 0.628c0 0.236-0.094 0.462-0.26 0.629s-0.393 0.26-0.628 0.26z"></path>
<path d="M28.444 16.889h-24.889c-0.236 0-0.462-0.094-0.629-0.26s-0.26-0.393-0.26-0.628 0.094-0.462 0.26-0.629c0.167-0.167 0.393-0.26 0.629-0.26h24.889c0.236 0 0.462 0.094 0.628 0.26s0.26 0.393 0.26 0.629c0 0.236-0.094 0.462-0.26 0.628s-0.393 0.26-0.628 0.26z"></path>
<path d="M28.444 8h-24.889c-0.236 0-0.462-0.094-0.629-0.26s-0.26-0.393-0.26-0.629c0-0.236 0.094-0.462 0.26-0.629s0.393-0.26 0.629-0.26h24.889c0.236 0 0.462 0.094 0.628 0.26s0.26 0.393 0.26 0.629c0 0.236-0.094 0.462-0.26 0.629s-0.393 0.26-0.628 0.26z"></path>
</symbol>
<symbol id="seven" viewBox="0 0 32 32">
<path fill="#52ffe0" style="fill: var(--color1, #52ffe0)" d="M32 16c0 8.837-7.163 16-16 16s-16-7.163-16-16c0-8.837 7.163-16 16-16s16 7.163 16 16z"></path>
<path fill="#2c2d31" style="fill: var(--color2, #2c2d31)" d="M13.762 20.706c0.060-0.010 0.171-0.12 0.331-0.331 0.161-0.221 0.356-0.592 0.587-1.114 0.161-0.351 0.311-0.698 0.452-1.039 0.141-0.351 0.281-0.708 0.422-1.069s0.296-0.738 0.467-1.129c0.251-0.582 0.497-1.074 0.738-1.476 0.251-0.402 0.477-0.733 0.678-0.994 0.211-0.271 0.387-0.487 0.527-0.648v-0.030h-4.036c-0.653 0-1.119 0.070-1.4 0.211-0.271 0.131-0.407 0.261-0.407 0.392v-1.807h8.056c-0.090 0.1-0.216 0.261-0.376 0.482-0.151 0.211-0.296 0.432-0.437 0.663-0.090 0.141-0.221 0.387-0.392 0.738-0.161 0.341-0.346 0.743-0.557 1.205-0.201 0.452-0.412 0.929-0.632 1.431-0.211 0.502-0.412 0.989-0.602 1.461s-0.351 0.893-0.482 1.265c-0.13 0.371-0.216 0.653-0.256 0.843-0.070 0.351-0.1 0.597-0.090 0.738 0.020 0.141 0.050 0.211 0.090 0.211h-2.68z"></path>
</symbol>
<symbol id="ten" viewBox="0 0 32 32">
<path fill="#52ffe0" style="fill: var(--color1, #52ffe0)" d="M32 16c0 8.837-7.163 16-16 16s-16-7.163-16-16c0-8.837 7.163-16 16-16s16 7.163 16 16z"></path>
<path fill="#2c2d31" style="fill: var(--color2, #2c2d31)" d="M10.737 20.706c0.070 0 0.136-0.070 0.196-0.211 0.070-0.141 0.105-0.371 0.105-0.693v-6.626l-1.656 0.301v-1.355c0.412 0 0.828-0.030 1.25-0.090 0.432-0.070 0.828-0.151 1.19-0.241 0.371-0.1 0.673-0.191 0.904-0.271v8.282c0 0.321 0.035 0.552 0.105 0.693s0.141 0.211 0.211 0.211h-2.304zM18.534 20.856c-1.335 0-2.334-0.397-2.997-1.19-0.663-0.803-0.994-1.978-0.994-3.524 0-1.506 0.336-2.65 1.009-3.433 0.673-0.793 1.667-1.19 2.982-1.19h0.166c1.295 0 2.269 0.392 2.921 1.175 0.663 0.783 0.994 1.933 0.994 3.448 0 1.546-0.331 2.721-0.994 3.524-0.653 0.793-1.626 1.19-2.921 1.19h-0.166zM18.534 19.637h0.166c0.472 0 0.873-0.095 1.205-0.286 0.331-0.201 0.582-0.552 0.753-1.054 0.181-0.512 0.271-1.23 0.271-2.153 0-0.904-0.090-1.601-0.271-2.093-0.171-0.502-0.422-0.848-0.753-1.039s-0.733-0.286-1.205-0.286h-0.166c-0.482 0-0.893 0.095-1.235 0.286s-0.607 0.532-0.798 1.024c-0.181 0.492-0.271 1.195-0.271 2.108 0 0.934 0.090 1.656 0.271 2.168 0.191 0.502 0.457 0.848 0.798 1.039 0.351 0.191 0.763 0.286 1.235 0.286z"></path>
</symbol>
<symbol id="three" viewBox="0 0 32 32">
<path fill="#52ffe0" style="fill: var(--color1, #52ffe0)" d="M32 16c0 8.837-7.163 16-16 16s-16-7.163-16-16c0-8.837 7.163-16 16-16s16 7.163 16 16z"></path>
<path fill="#2c2d31" style="fill: var(--color2, #2c2d31)" d="M16.089 20.856c-1.024 0-1.862-0.065-2.515-0.196-0.653-0.141-1.089-0.276-1.31-0.407l0.316-1.461v-0.301c0.141 0.161 0.356 0.331 0.648 0.512s0.653 0.336 1.084 0.467c0.442 0.12 0.944 0.181 1.506 0.181 0.542 0 0.974-0.060 1.295-0.181 0.331-0.12 0.567-0.296 0.708-0.527 0.151-0.231 0.226-0.507 0.226-0.828 0-0.462-0.186-0.808-0.557-1.039-0.371-0.241-0.984-0.361-1.837-0.361h-1.28v-1.129h1.28c0.653 0 1.114-0.146 1.385-0.437 0.271-0.301 0.407-0.713 0.407-1.235 0-0.261-0.055-0.477-0.166-0.648-0.11-0.181-0.276-0.316-0.497-0.407s-0.497-0.136-0.828-0.136c-0.472 0-0.924 0.075-1.355 0.226-0.422 0.151-0.793 0.336-1.114 0.557-0.321 0.211-0.577 0.417-0.768 0.617v-0.301l-0.301-1.4c0.231-0.201 0.653-0.402 1.265-0.602s1.36-0.301 2.244-0.301c0.843 0 1.496 0.095 1.958 0.286s0.783 0.457 0.964 0.798c0.191 0.341 0.286 0.738 0.286 1.19 0 0.522-0.156 0.969-0.467 1.34-0.301 0.371-0.688 0.653-1.16 0.843v0.030c0.723 0.161 1.275 0.417 1.656 0.768s0.572 0.833 0.572 1.446c0 0.502-0.12 0.954-0.361 1.355s-0.632 0.718-1.175 0.949c-0.532 0.221-1.235 0.331-2.108 0.331z"></path>
</symbol>
<symbol id="read-more" viewBox="0 0 34 32">
<path fill="#fff" style="fill: var(--color1, #fff)" d="M4 2h9v2h-8v24h24v-8h2v9l-1 1h-26l-1-1v-26l1-1z"></path>
<path fill="#fff" style="fill: var(--color1, #fff)" d="M31 3v13h-2v-10.586l-13.514 13.516-1.414-1.416 13.514-13.514h-10.586v-2h13l1 1z"></path>
</symbol>
</defs>
</svg>
