<svg width="34" height="34" viewBox="0 0 34 34" fill="none" xmlns="http://www.w3.org/2000/svg">
<circle cx="17" cy="17" r="17" fill="#52FFE0"/>
<path d="M14.6224 22C14.6864 21.9893 14.8038 21.872 14.9744 21.648C15.1451 21.4133 15.3531 21.0187 15.5984 20.464C15.7691 20.0907 15.9291 19.7227 16.0784 19.36C16.2278 18.9867 16.3771 18.608 16.5264 18.224C16.6758 17.84 16.8411 17.44 17.0224 17.024C17.2891 16.4053 17.5504 15.8827 17.8064 15.456C18.0731 15.0293 18.3131 14.6773 18.5264 14.4C18.7504 14.112 18.9371 13.8827 19.0864 13.712V13.68H14.7984C14.1051 13.68 13.6091 13.7547 13.3104 13.904C13.0224 14.0427 12.8784 14.1813 12.8784 14.32V12.4H21.4384C21.3424 12.5067 21.2091 12.6773 21.0384 12.912C20.8784 13.136 20.7238 13.3707 20.5744 13.616C20.4784 13.7653 20.3398 14.0267 20.1584 14.4C19.9878 14.7627 19.7904 15.1893 19.5664 15.68C19.3531 16.16 19.1291 16.6667 18.8944 17.2C18.6704 17.7333 18.4571 18.2507 18.2544 18.752C18.0518 19.2533 17.8811 19.7013 17.7424 20.096C17.6038 20.4907 17.5131 20.7893 17.4704 20.992C17.3958 21.3653 17.3638 21.6267 17.3744 21.776C17.3958 21.9253 17.4278 22 17.4704 22H14.6224Z" fill="#2C2D31"/>
</svg>
