<svg width="34" height="34" viewBox="0 0 34 34" fill="none" xmlns="http://www.w3.org/2000/svg">
<circle cx="17" cy="17" r="17" fill="#52FFE0"/>
<path d="M11.4081 22C11.4828 22 11.5521 21.9253 11.6161 21.776C11.6908 21.6267 11.7281 21.3813 11.7281 21.04V14L9.96813 14.32V12.88C10.4055 12.88 10.8481 12.848 11.2961 12.784C11.7548 12.7093 12.1761 12.624 12.5601 12.528C12.9548 12.4213 13.2748 12.3253 13.5201 12.24V21.04C13.5201 21.3813 13.5575 21.6267 13.6321 21.776C13.7068 21.9253 13.7815 22 13.8561 22H11.4081ZM19.6925 22.16C18.2738 22.16 17.2125 21.7387 16.5085 20.896C15.8045 20.0427 15.4525 18.7947 15.4525 17.152C15.4525 15.552 15.8098 14.336 16.5245 13.504C17.2392 12.6613 18.2952 12.24 19.6925 12.24H19.8685C21.2445 12.24 22.2792 12.656 22.9725 13.488C23.6765 14.32 24.0285 15.5413 24.0285 17.152C24.0285 18.7947 23.6765 20.0427 22.9725 20.896C22.2792 21.7387 21.2445 22.16 19.8685 22.16H19.6925ZM19.6925 20.864H19.8685C20.3698 20.864 20.7965 20.7627 21.1485 20.56C21.5005 20.3467 21.7672 19.9733 21.9485 19.44C22.1405 18.896 22.2365 18.1333 22.2365 17.152C22.2365 16.192 22.1405 15.4507 21.9485 14.928C21.7672 14.3947 21.5005 14.0267 21.1485 13.824C20.7965 13.6213 20.3698 13.52 19.8685 13.52H19.6925C19.1805 13.52 18.7432 13.6213 18.3805 13.824C18.0178 14.0267 17.7352 14.3893 17.5325 14.912C17.3405 15.4347 17.2445 16.1813 17.2445 17.152C17.2445 18.144 17.3405 18.912 17.5325 19.456C17.7352 19.9893 18.0178 20.3573 18.3805 20.56C18.7538 20.7627 19.1912 20.864 19.6925 20.864Z" fill="#2C2D31"/>
</svg>
