<svg width="34" height="34" viewBox="0 0 34 34" fill="none" xmlns="http://www.w3.org/2000/svg">
<circle cx="17" cy="17" r="17" fill="#52FFE0"/>
<path d="M17.0946 22.16C16.0066 22.16 15.116 22.0907 14.4226 21.952C13.7293 21.8027 13.2653 21.6587 13.0306 21.52L13.3666 19.968V19.648C13.516 19.8187 13.7453 20 14.0546 20.192C14.364 20.384 14.748 20.5493 15.2066 20.688C15.676 20.816 16.2093 20.88 16.8066 20.88C17.3826 20.88 17.8413 20.816 18.1826 20.688C18.5346 20.56 18.7853 20.3733 18.9346 20.128C19.0946 19.8827 19.1746 19.5893 19.1746 19.248C19.1746 18.7573 18.9773 18.3893 18.5826 18.144C18.188 17.888 17.5373 17.76 16.6306 17.76H15.2706V16.56H16.6306C17.324 16.56 17.8146 16.4053 18.1026 16.096C18.3906 15.776 18.5346 15.3387 18.5346 14.784C18.5346 14.5067 18.476 14.2773 18.3586 14.096C18.2413 13.904 18.0653 13.76 17.8306 13.664C17.596 13.568 17.3026 13.52 16.9506 13.52C16.4493 13.52 15.9693 13.6 15.5106 13.76C15.0626 13.92 14.668 14.1173 14.3266 14.352C13.9853 14.576 13.7133 14.7947 13.5106 15.008V14.688L13.1906 13.2C13.436 12.9867 13.884 12.7733 14.5346 12.56C15.1853 12.3467 15.98 12.24 16.9186 12.24C17.8146 12.24 18.508 12.3413 18.9986 12.544C19.4893 12.7467 19.8306 13.0293 20.0226 13.392C20.2253 13.7547 20.3266 14.176 20.3266 14.656C20.3266 15.2107 20.1613 15.6853 19.8306 16.08C19.5106 16.4747 19.1 16.7733 18.5986 16.976V17.008C19.3666 17.1787 19.9533 17.4507 20.3586 17.824C20.764 18.1973 20.9666 18.7093 20.9666 19.36C20.9666 19.8933 20.8386 20.3733 20.5826 20.8C20.3266 21.2267 19.9106 21.5627 19.3346 21.808C18.7693 22.0427 18.0226 22.16 17.0946 22.16Z" fill="#2C2D31"/>
</svg>
